<?xml version="1.0" encoding="UTF-8"?>
<svg id="Camada_1" data-name="Camada 1" xmlns="http://www.w3.org/2000/svg" viewBox="0 0 693.96 681.67">
  <defs>
    <style>
      .cls-1 {
        fill: none;
        stroke: #3c3c3b;
        stroke-miterlimit: 10;
        stroke-width: 1.54px;
      }
    </style>
  </defs>
  <line class="cls-1" x1=".77" x2=".77" y2="681.67"/>
  <line class="cls-1" x1="357.89" x2="357.89" y2="681.67"/>
  <line class="cls-1" x1="179.67" x2="179.67" y2="681.67"/>
  <line class="cls-1" x1="536.79" x2="536.79" y2="681.67"/>
  <line class="cls-1" x1="89.19" x2="89.19" y2="681.67"/>
  <line class="cls-1" x1="446.31" x2="446.31" y2="681.67"/>
  <line class="cls-1" x1="268.09" x2="268.09" y2="681.67"/>
  <line class="cls-1" x1="625.21" x2="625.21" y2="681.67"/>
  <line class="cls-1" x1="46.12" x2="46.12" y2="681.67"/>
  <line class="cls-1" x1="403.24" x2="403.24" y2="681.67"/>
  <line class="cls-1" x1="225.02" x2="225.02" y2="681.67"/>
  <line class="cls-1" x1="582.14" x2="582.14" y2="681.67"/>
  <line class="cls-1" x1="134.54" x2="134.54" y2="681.67"/>
  <line class="cls-1" x1="491.66" x2="491.66" y2="681.67"/>
  <line class="cls-1" x1="313.45" x2="313.45" y2="681.67"/>
  <line class="cls-1" x1="670.57" x2="670.57" y2="681.67"/>
  <line class="cls-1" x1="23.39" x2="23.39" y2="681.67"/>
  <line class="cls-1" x1="380.51" x2="380.51" y2="681.67"/>
  <line class="cls-1" x1="202.29" x2="202.29" y2="681.67"/>
  <line class="cls-1" x1="559.41" x2="559.41" y2="681.67"/>
  <line class="cls-1" x1="111.81" x2="111.81" y2="681.67"/>
  <line class="cls-1" x1="468.93" x2="468.93" y2="681.67"/>
  <line class="cls-1" x1="290.71" x2="290.71" y2="681.67"/>
  <line class="cls-1" x1="647.83" x2="647.83" y2="681.67"/>
  <line class="cls-1" x1="68.74" x2="68.74" y2="681.67"/>
  <line class="cls-1" x1="425.86" x2="425.86" y2="681.67"/>
  <line class="cls-1" x1="247.64" x2="247.64" y2="681.67"/>
  <line class="cls-1" x1="604.76" x2="604.76" y2="681.67"/>
  <line class="cls-1" x1="157.16" x2="157.16" y2="681.67"/>
  <line class="cls-1" x1="514.28" x2="514.28" y2="681.67"/>
  <line class="cls-1" x1="336.07" x2="336.07" y2="681.67"/>
  <line class="cls-1" x1="693.19" x2="693.19" y2="681.67"/>
</svg>