<?xml version="1.0" encoding="UTF-8"?>
<svg id="Camada_1" data-name="Camada 1" xmlns="http://www.w3.org/2000/svg" viewBox="0 0 685.16 685.16">
  <defs>
    <style>
      .cls-1 {
        fill: #EDEBDE;
      }
    </style>
  </defs>
  <polygon class="cls-1" points="665.71 0 685.16 19.46 685.16 12.4 672.76 0 665.71 0"/>
  <polygon class="cls-1" points="629.53 0 685.16 55.63 685.16 48.58 636.59 0 629.53 0"/>
  <polygon class="cls-1" points="593.36 0 685.16 91.8 685.16 84.75 600.41 0 593.36 0"/>
  <polygon class="cls-1" points="557.18 0 685.16 127.98 685.16 120.93 564.24 0 557.18 0"/>
  <polygon class="cls-1" points="521.01 0 685.16 164.15 685.16 157.1 528.06 0 521.01 0"/>
  <polygon class="cls-1" points="484.83 0 685.16 200.33 685.16 193.28 491.89 0 484.83 0"/>
  <polygon class="cls-1" points="448.66 0 685.16 236.5 685.16 229.45 455.71 0 448.66 0"/>
  <polygon class="cls-1" points="412.48 0 685.16 272.68 685.16 265.62 419.54 0 412.48 0"/>
  <polygon class="cls-1" points="376.31 0 685.16 308.85 685.16 301.8 383.36 0 376.31 0"/>
  <polygon class="cls-1" points="340.13 0 685.16 345.03 685.16 337.97 347.19 0 340.13 0"/>
  <polygon class="cls-1" points="303.96 0 685.16 381.2 685.16 374.15 311.01 0 303.96 0"/>
  <polygon class="cls-1" points="267.79 0 685.16 417.38 685.16 410.32 274.84 0 267.79 0"/>
  <polygon class="cls-1" points="231.61 0 685.16 453.55 685.16 446.5 238.66 0 231.61 0"/>
  <polygon class="cls-1" points="195.43 0 685.16 489.73 685.16 482.67 202.49 0 195.43 0"/>
  <polygon class="cls-1" points="159.26 0 685.16 525.9 685.16 518.85 166.32 0 159.26 0"/>
  <polygon class="cls-1" points="123.08 0 685.16 562.08 685.16 555.02 130.14 0 123.08 0"/>
  <polygon class="cls-1" points="86.91 0 685.16 598.25 685.16 591.2 93.97 0 86.91 0"/>
  <polygon class="cls-1" points="50.74 0 685.16 634.43 685.16 627.37 57.79 0 50.74 0"/>
  <polygon class="cls-1" points="14.56 0 685.16 670.6 685.16 663.55 21.61 0 14.56 0"/>
  <polygon class="cls-1" points="0 21.61 663.55 685.16 670.6 685.16 0 14.56 0 21.61"/>
  <polygon class="cls-1" points="0 57.79 627.37 685.16 634.43 685.16 0 50.73 0 57.79"/>
  <polygon class="cls-1" points="0 93.96 591.2 685.16 598.25 685.16 0 86.91 0 93.96"/>
  <polygon class="cls-1" points="0 130.14 555.02 685.16 562.08 685.16 0 123.08 0 130.14"/>
  <polygon class="cls-1" points="0 166.31 518.85 685.16 525.9 685.16 0 159.26 0 166.31"/>
  <polygon class="cls-1" points="0 202.49 482.68 685.16 489.73 685.16 0 195.43 0 202.49"/>
  <polygon class="cls-1" points="0 238.66 446.5 685.16 453.55 685.16 0 231.61 0 238.66"/>
  <polygon class="cls-1" points="0 274.84 410.33 685.16 417.38 685.16 0 267.78 0 274.84"/>
  <polygon class="cls-1" points="0 311.01 374.15 685.16 381.2 685.16 0 303.96 0 311.01"/>
  <polygon class="cls-1" points="0 347.19 337.98 685.16 345.03 685.16 0 340.13 0 347.19"/>
  <polygon class="cls-1" points="0 383.36 301.8 685.16 308.86 685.16 0 376.31 0 383.36"/>
  <polygon class="cls-1" points="0 419.54 265.63 685.16 272.68 685.16 0 412.48 0 419.54"/>
  <polygon class="cls-1" points="0 455.71 229.45 685.16 236.51 685.16 0 448.66 0 455.71"/>
  <polygon class="cls-1" points="0 491.89 193.28 685.16 200.33 685.16 0 484.83 0 491.89"/>
  <polygon class="cls-1" points="0 528.06 157.1 685.16 164.16 685.16 0 521.01 0 528.06"/>
  <polygon class="cls-1" points="0 564.23 120.93 685.16 127.98 685.16 0 557.18 0 564.23"/>
  <polygon class="cls-1" points="0 600.41 84.75 685.16 91.81 685.16 0 593.36 0 600.41"/>
  <polygon class="cls-1" points="0 636.58 48.58 685.16 55.63 685.16 0 629.53 0 636.58"/>
  <polygon class="cls-1" points="0 672.76 12.4 685.16 19.46 685.16 0 665.71 0 672.76"/>
</svg>