<?xml version="1.0" encoding="UTF-8"?>
<svg id="Camada_1" data-name="Camada 1" xmlns="http://www.w3.org/2000/svg" viewBox="0 0 938.55 675.69">
  <defs>
    <style>
      .cls-1 {
        fill: #EDEBDE;
      }
    </style>
  </defs>
  <path class="cls-1" d="M7.92,15.85c4.38,0,7.92-3.55,7.92-7.92S12.3,0,7.92,0,0,3.55,0,7.92s3.55,7.92,7.92,7.92"/>
  <path class="cls-1" d="M84.82,15.85c4.38,0,7.92-3.55,7.92-7.92s-3.55-7.92-7.92-7.92-7.92,3.55-7.92,7.92,3.55,7.92,7.92,7.92"/>
  <path class="cls-1" d="M161.71,15.85c4.38,0,7.92-3.55,7.92-7.92s-3.55-7.92-7.92-7.92-7.92,3.55-7.92,7.92,3.55,7.92,7.92,7.92"/>
  <path class="cls-1" d="M238.6,15.85c4.38,0,7.92-3.55,7.92-7.92s-3.55-7.92-7.92-7.92-7.92,3.55-7.92,7.92,3.55,7.92,7.92,7.92"/>
  <path class="cls-1" d="M315.49,15.85c4.38,0,7.92-3.55,7.92-7.92s-3.55-7.92-7.92-7.92-7.92,3.55-7.92,7.92,3.55,7.92,7.92,7.92"/>
  <path class="cls-1" d="M392.38,15.85c4.38,0,7.92-3.55,7.92-7.92s-3.55-7.92-7.92-7.92-7.92,3.55-7.92,7.92,3.55,7.92,7.92,7.92"/>
  <path class="cls-1" d="M469.28,15.85c4.38,0,7.92-3.55,7.92-7.92s-3.55-7.92-7.92-7.92-7.92,3.55-7.92,7.92,3.55,7.92,7.92,7.92"/>
  <path class="cls-1" d="M546.17,15.85c4.38,0,7.92-3.55,7.92-7.92s-3.55-7.92-7.92-7.92-7.92,3.55-7.92,7.92,3.55,7.92,7.92,7.92"/>
  <path class="cls-1" d="M623.06,15.85c4.38,0,7.92-3.55,7.92-7.92s-3.55-7.92-7.92-7.92-7.92,3.55-7.92,7.92,3.55,7.92,7.92,7.92"/>
  <path class="cls-1" d="M699.95,15.85c4.38,0,7.92-3.55,7.92-7.92s-3.55-7.92-7.92-7.92-7.92,3.55-7.92,7.92,3.55,7.92,7.92,7.92"/>
  <path class="cls-1" d="M776.85,15.85c4.38,0,7.92-3.55,7.92-7.92s-3.55-7.92-7.92-7.92-7.92,3.55-7.92,7.92,3.55,7.92,7.92,7.92"/>
  <path class="cls-1" d="M853.74,15.85c4.38,0,7.92-3.55,7.92-7.92s-3.55-7.92-7.92-7.92-7.92,3.55-7.92,7.92,3.55,7.92,7.92,7.92"/>
  <path class="cls-1" d="M930.63,15.85c4.38,0,7.92-3.55,7.92-7.92s-3.55-7.92-7.92-7.92-7.92,3.55-7.92,7.92,3.55,7.92,7.92,7.92"/>
  <path class="cls-1" d="M7.92,70.83c4.38,0,7.92-3.55,7.92-7.92s-3.55-7.92-7.92-7.92-7.92,3.55-7.92,7.92,3.55,7.92,7.92,7.92"/>
  <path class="cls-1" d="M84.82,70.83c4.38,0,7.92-3.55,7.92-7.92s-3.55-7.92-7.92-7.92-7.92,3.55-7.92,7.92,3.55,7.92,7.92,7.92"/>
  <path class="cls-1" d="M161.71,70.83c4.38,0,7.92-3.55,7.92-7.92s-3.55-7.92-7.92-7.92-7.92,3.55-7.92,7.92,3.55,7.92,7.92,7.92"/>
  <path class="cls-1" d="M238.6,70.83c4.38,0,7.92-3.55,7.92-7.92s-3.55-7.92-7.92-7.92-7.92,3.55-7.92,7.92,3.55,7.92,7.92,7.92"/>
  <path class="cls-1" d="M315.49,70.83c4.38,0,7.92-3.55,7.92-7.92s-3.55-7.92-7.92-7.92-7.92,3.55-7.92,7.92,3.55,7.92,7.92,7.92"/>
  <path class="cls-1" d="M392.38,70.83c4.38,0,7.92-3.55,7.92-7.92s-3.55-7.92-7.92-7.92-7.92,3.55-7.92,7.92,3.55,7.92,7.92,7.92"/>
  <path class="cls-1" d="M469.28,70.83c4.38,0,7.92-3.55,7.92-7.92s-3.55-7.92-7.92-7.92-7.92,3.55-7.92,7.92,3.55,7.92,7.92,7.92"/>
  <path class="cls-1" d="M546.17,70.83c4.38,0,7.92-3.55,7.92-7.92s-3.55-7.92-7.92-7.92-7.92,3.55-7.92,7.92,3.55,7.92,7.92,7.92"/>
  <path class="cls-1" d="M623.06,70.83c4.38,0,7.92-3.55,7.92-7.92s-3.55-7.92-7.92-7.92-7.92,3.55-7.92,7.92,3.55,7.92,7.92,7.92"/>
  <path class="cls-1" d="M699.95,70.83c4.38,0,7.92-3.55,7.92-7.92s-3.55-7.92-7.92-7.92-7.92,3.55-7.92,7.92,3.55,7.92,7.92,7.92"/>
  <path class="cls-1" d="M776.85,70.83c4.38,0,7.92-3.55,7.92-7.92s-3.55-7.92-7.92-7.92-7.92,3.55-7.92,7.92,3.55,7.92,7.92,7.92"/>
  <path class="cls-1" d="M853.74,70.83c4.38,0,7.92-3.55,7.92-7.92s-3.55-7.92-7.92-7.92-7.92,3.55-7.92,7.92,3.55,7.92,7.92,7.92"/>
  <path class="cls-1" d="M930.63,70.83c4.38,0,7.92-3.55,7.92-7.92s-3.55-7.92-7.92-7.92-7.92,3.55-7.92,7.92,3.55,7.92,7.92,7.92"/>
  <path class="cls-1" d="M7.92,125.82c4.38,0,7.92-3.55,7.92-7.92s-3.55-7.92-7.92-7.92-7.92,3.55-7.92,7.92,3.55,7.92,7.92,7.92"/>
  <path class="cls-1" d="M84.82,125.82c4.38,0,7.92-3.55,7.92-7.92s-3.55-7.92-7.92-7.92-7.92,3.55-7.92,7.92,3.55,7.92,7.92,7.92"/>
  <path class="cls-1" d="M161.71,125.82c4.38,0,7.92-3.55,7.92-7.92s-3.55-7.92-7.92-7.92-7.92,3.55-7.92,7.92,3.55,7.92,7.92,7.92"/>
  <path class="cls-1" d="M238.6,125.82c4.38,0,7.92-3.55,7.92-7.92s-3.55-7.92-7.92-7.92-7.92,3.55-7.92,7.92,3.55,7.92,7.92,7.92"/>
  <path class="cls-1" d="M315.49,125.82c4.38,0,7.92-3.55,7.92-7.92s-3.55-7.92-7.92-7.92-7.92,3.55-7.92,7.92,3.55,7.92,7.92,7.92"/>
  <path class="cls-1" d="M392.38,125.82c4.38,0,7.92-3.55,7.92-7.92s-3.55-7.92-7.92-7.92-7.92,3.55-7.92,7.92,3.55,7.92,7.92,7.92"/>
  <path class="cls-1" d="M469.28,125.82c4.38,0,7.92-3.55,7.92-7.92s-3.55-7.92-7.92-7.92-7.92,3.55-7.92,7.92,3.55,7.92,7.92,7.92"/>
  <path class="cls-1" d="M546.17,125.82c4.38,0,7.92-3.55,7.92-7.92s-3.55-7.92-7.92-7.92-7.92,3.55-7.92,7.92,3.55,7.92,7.92,7.92"/>
  <path class="cls-1" d="M623.06,125.82c4.38,0,7.92-3.55,7.92-7.92s-3.55-7.92-7.92-7.92-7.92,3.55-7.92,7.92,3.55,7.92,7.92,7.92"/>
  <path class="cls-1" d="M699.95,125.82c4.38,0,7.92-3.55,7.92-7.92s-3.55-7.92-7.92-7.92-7.92,3.55-7.92,7.92,3.55,7.92,7.92,7.92"/>
  <path class="cls-1" d="M776.85,125.82c4.38,0,7.92-3.55,7.92-7.92s-3.55-7.92-7.92-7.92-7.92,3.55-7.92,7.92,3.55,7.92,7.92,7.92"/>
  <path class="cls-1" d="M853.74,125.82c4.38,0,7.92-3.55,7.92-7.92s-3.55-7.92-7.92-7.92-7.92,3.55-7.92,7.92,3.55,7.92,7.92,7.92"/>
  <path class="cls-1" d="M930.63,125.82c4.38,0,7.92-3.55,7.92-7.92s-3.55-7.92-7.92-7.92-7.92,3.55-7.92,7.92,3.55,7.92,7.92,7.92"/>
  <path class="cls-1" d="M7.92,180.81c4.38,0,7.92-3.55,7.92-7.92s-3.55-7.92-7.92-7.92-7.92,3.55-7.92,7.92,3.55,7.92,7.92,7.92"/>
  <path class="cls-1" d="M84.82,180.81c4.38,0,7.92-3.55,7.92-7.92s-3.55-7.92-7.92-7.92-7.92,3.55-7.92,7.92,3.55,7.92,7.92,7.92"/>
  <path class="cls-1" d="M161.71,180.81c4.38,0,7.92-3.55,7.92-7.92s-3.55-7.92-7.92-7.92-7.92,3.55-7.92,7.92,3.55,7.92,7.92,7.92"/>
  <path class="cls-1" d="M238.6,180.81c4.38,0,7.92-3.55,7.92-7.92s-3.55-7.92-7.92-7.92-7.92,3.55-7.92,7.92,3.55,7.92,7.92,7.92"/>
  <path class="cls-1" d="M315.49,180.81c4.38,0,7.92-3.55,7.92-7.92s-3.55-7.92-7.92-7.92-7.92,3.55-7.92,7.92,3.55,7.92,7.92,7.92"/>
  <path class="cls-1" d="M392.38,180.81c4.38,0,7.92-3.55,7.92-7.92s-3.55-7.92-7.92-7.92-7.92,3.55-7.92,7.92,3.55,7.92,7.92,7.92"/>
  <path class="cls-1" d="M469.28,180.81c4.38,0,7.92-3.55,7.92-7.92s-3.55-7.92-7.92-7.92-7.92,3.55-7.92,7.92,3.55,7.92,7.92,7.92"/>
  <path class="cls-1" d="M546.17,180.81c4.38,0,7.92-3.55,7.92-7.92s-3.55-7.92-7.92-7.92-7.92,3.55-7.92,7.92,3.55,7.92,7.92,7.92"/>
  <path class="cls-1" d="M623.06,180.81c4.38,0,7.92-3.55,7.92-7.92s-3.55-7.92-7.92-7.92-7.92,3.55-7.92,7.92,3.55,7.92,7.92,7.92"/>
  <path class="cls-1" d="M699.95,180.81c4.38,0,7.92-3.55,7.92-7.92s-3.55-7.92-7.92-7.92-7.92,3.55-7.92,7.92,3.55,7.92,7.92,7.92"/>
  <path class="cls-1" d="M776.85,180.81c4.38,0,7.92-3.55,7.92-7.92s-3.55-7.92-7.92-7.92-7.92,3.55-7.92,7.92,3.55,7.92,7.92,7.92"/>
  <path class="cls-1" d="M853.74,180.81c4.38,0,7.92-3.55,7.92-7.92s-3.55-7.92-7.92-7.92-7.92,3.55-7.92,7.92,3.55,7.92,7.92,7.92"/>
  <path class="cls-1" d="M930.63,180.81c4.38,0,7.92-3.55,7.92-7.92s-3.55-7.92-7.92-7.92-7.92,3.55-7.92,7.92,3.55,7.92,7.92,7.92"/>
  <path class="cls-1" d="M7.92,235.79c4.38,0,7.92-3.55,7.92-7.92s-3.55-7.92-7.92-7.92-7.92,3.55-7.92,7.92,3.55,7.92,7.92,7.92"/>
  <path class="cls-1" d="M84.82,235.79c4.38,0,7.92-3.55,7.92-7.92s-3.55-7.92-7.92-7.92-7.92,3.55-7.92,7.92,3.55,7.92,7.92,7.92"/>
  <path class="cls-1" d="M161.71,235.79c4.38,0,7.92-3.55,7.92-7.92s-3.55-7.92-7.92-7.92-7.92,3.55-7.92,7.92,3.55,7.92,7.92,7.92"/>
  <path class="cls-1" d="M238.6,235.79c4.38,0,7.92-3.55,7.92-7.92s-3.55-7.92-7.92-7.92-7.92,3.55-7.92,7.92,3.55,7.92,7.92,7.92"/>
  <path class="cls-1" d="M315.49,235.79c4.38,0,7.92-3.55,7.92-7.92s-3.55-7.92-7.92-7.92-7.92,3.55-7.92,7.92,3.55,7.92,7.92,7.92"/>
  <path class="cls-1" d="M392.38,235.79c4.38,0,7.92-3.55,7.92-7.92s-3.55-7.92-7.92-7.92-7.92,3.55-7.92,7.92,3.55,7.92,7.92,7.92"/>
  <path class="cls-1" d="M469.28,235.79c4.38,0,7.92-3.55,7.92-7.92s-3.55-7.92-7.92-7.92-7.92,3.55-7.92,7.92,3.55,7.92,7.92,7.92"/>
  <path class="cls-1" d="M546.17,235.79c4.38,0,7.92-3.55,7.92-7.92s-3.55-7.92-7.92-7.92-7.92,3.55-7.92,7.92,3.55,7.92,7.92,7.92"/>
  <path class="cls-1" d="M623.06,235.79c4.38,0,7.92-3.55,7.92-7.92s-3.55-7.92-7.92-7.92-7.92,3.55-7.92,7.92,3.55,7.92,7.92,7.92"/>
  <path class="cls-1" d="M699.95,235.79c4.38,0,7.92-3.55,7.92-7.92s-3.55-7.92-7.92-7.92-7.92,3.55-7.92,7.92,3.55,7.92,7.92,7.92"/>
  <path class="cls-1" d="M776.85,235.79c4.38,0,7.92-3.55,7.92-7.92s-3.55-7.92-7.92-7.92-7.92,3.55-7.92,7.92,3.55,7.92,7.92,7.92"/>
  <path class="cls-1" d="M853.74,235.79c4.38,0,7.92-3.55,7.92-7.92s-3.55-7.92-7.92-7.92-7.92,3.55-7.92,7.92,3.55,7.92,7.92,7.92"/>
  <path class="cls-1" d="M930.63,235.79c4.38,0,7.92-3.55,7.92-7.92s-3.55-7.92-7.92-7.92-7.92,3.55-7.92,7.92,3.55,7.92,7.92,7.92"/>
  <path class="cls-1" d="M7.92,290.78c4.38,0,7.92-3.55,7.92-7.92s-3.55-7.92-7.92-7.92-7.92,3.55-7.92,7.92,3.55,7.92,7.92,7.92"/>
  <path class="cls-1" d="M84.82,290.78c4.38,0,7.92-3.55,7.92-7.92s-3.55-7.92-7.92-7.92-7.92,3.55-7.92,7.92,3.55,7.92,7.92,7.92"/>
  <path class="cls-1" d="M161.71,290.78c4.38,0,7.92-3.55,7.92-7.92s-3.55-7.92-7.92-7.92-7.92,3.55-7.92,7.92,3.55,7.92,7.92,7.92"/>
  <path class="cls-1" d="M238.6,290.78c4.38,0,7.92-3.55,7.92-7.92s-3.55-7.92-7.92-7.92-7.92,3.55-7.92,7.92,3.55,7.92,7.92,7.92"/>
  <path class="cls-1" d="M315.49,290.78c4.38,0,7.92-3.55,7.92-7.92s-3.55-7.92-7.92-7.92-7.92,3.55-7.92,7.92,3.55,7.92,7.92,7.92"/>
  <path class="cls-1" d="M392.38,290.78c4.38,0,7.92-3.55,7.92-7.92s-3.55-7.92-7.92-7.92-7.92,3.55-7.92,7.92,3.55,7.92,7.92,7.92"/>
  <path class="cls-1" d="M469.28,290.78c4.38,0,7.92-3.55,7.92-7.92s-3.55-7.92-7.92-7.92-7.92,3.55-7.92,7.92,3.55,7.92,7.92,7.92"/>
  <path class="cls-1" d="M546.17,290.78c4.38,0,7.92-3.55,7.92-7.92s-3.55-7.92-7.92-7.92-7.92,3.55-7.92,7.92,3.55,7.92,7.92,7.92"/>
  <path class="cls-1" d="M623.06,290.78c4.38,0,7.92-3.55,7.92-7.92s-3.55-7.92-7.92-7.92-7.92,3.55-7.92,7.92,3.55,7.92,7.92,7.92"/>
  <path class="cls-1" d="M699.95,290.78c4.38,0,7.92-3.55,7.92-7.92s-3.55-7.92-7.92-7.92-7.92,3.55-7.92,7.92,3.55,7.92,7.92,7.92"/>
  <path class="cls-1" d="M776.85,290.78c4.38,0,7.92-3.55,7.92-7.92s-3.55-7.92-7.92-7.92-7.92,3.55-7.92,7.92,3.55,7.92,7.92,7.92"/>
  <path class="cls-1" d="M853.74,290.78c4.38,0,7.92-3.55,7.92-7.92s-3.55-7.92-7.92-7.92-7.92,3.55-7.92,7.92,3.55,7.92,7.92,7.92"/>
  <path class="cls-1" d="M930.63,290.78c4.38,0,7.92-3.55,7.92-7.92s-3.55-7.92-7.92-7.92-7.92,3.55-7.92,7.92,3.55,7.92,7.92,7.92"/>
  <path class="cls-1" d="M7.92,345.77c4.38,0,7.92-3.55,7.92-7.92s-3.55-7.92-7.92-7.92-7.92,3.55-7.92,7.92,3.55,7.92,7.92,7.92"/>
  <path class="cls-1" d="M84.82,345.77c4.38,0,7.92-3.55,7.92-7.92s-3.55-7.92-7.92-7.92-7.92,3.55-7.92,7.92,3.55,7.92,7.92,7.92"/>
  <path class="cls-1" d="M161.71,345.77c4.38,0,7.92-3.55,7.92-7.92s-3.55-7.92-7.92-7.92-7.92,3.55-7.92,7.92,3.55,7.92,7.92,7.92"/>
  <path class="cls-1" d="M238.6,345.77c4.38,0,7.92-3.55,7.92-7.92s-3.55-7.92-7.92-7.92-7.92,3.55-7.92,7.92,3.55,7.92,7.92,7.92"/>
  <path class="cls-1" d="M315.49,345.77c4.38,0,7.92-3.55,7.92-7.92s-3.55-7.92-7.92-7.92-7.92,3.55-7.92,7.92,3.55,7.92,7.92,7.92"/>
  <path class="cls-1" d="M392.38,345.77c4.38,0,7.92-3.55,7.92-7.92s-3.55-7.92-7.92-7.92-7.92,3.55-7.92,7.92,3.55,7.92,7.92,7.92"/>
  <path class="cls-1" d="M469.28,345.77c4.38,0,7.92-3.55,7.92-7.92s-3.55-7.92-7.92-7.92-7.92,3.55-7.92,7.92,3.55,7.92,7.92,7.92"/>
  <path class="cls-1" d="M546.17,345.77c4.38,0,7.92-3.55,7.92-7.92s-3.55-7.92-7.92-7.92-7.92,3.55-7.92,7.92,3.55,7.92,7.92,7.92"/>
  <path class="cls-1" d="M623.06,345.77c4.38,0,7.92-3.55,7.92-7.92s-3.55-7.92-7.92-7.92-7.92,3.55-7.92,7.92,3.55,7.92,7.92,7.92"/>
  <path class="cls-1" d="M699.95,345.77c4.38,0,7.92-3.55,7.92-7.92s-3.55-7.92-7.92-7.92-7.92,3.55-7.92,7.92,3.55,7.92,7.92,7.92"/>
  <path class="cls-1" d="M776.85,345.77c4.38,0,7.92-3.55,7.92-7.92s-3.55-7.92-7.92-7.92-7.92,3.55-7.92,7.92,3.55,7.92,7.92,7.92"/>
  <path class="cls-1" d="M853.74,345.77c4.38,0,7.92-3.55,7.92-7.92s-3.55-7.92-7.92-7.92-7.92,3.55-7.92,7.92,3.55,7.92,7.92,7.92"/>
  <path class="cls-1" d="M930.63,345.77c4.38,0,7.92-3.55,7.92-7.92s-3.55-7.92-7.92-7.92-7.92,3.55-7.92,7.92,3.55,7.92,7.92,7.92"/>
  <path class="cls-1" d="M7.92,400.75c4.38,0,7.92-3.55,7.92-7.92s-3.55-7.92-7.92-7.92-7.92,3.55-7.92,7.92,3.55,7.92,7.92,7.92"/>
  <path class="cls-1" d="M84.82,400.75c4.38,0,7.92-3.55,7.92-7.92s-3.55-7.92-7.92-7.92-7.92,3.55-7.92,7.92,3.55,7.92,7.92,7.92"/>
  <path class="cls-1" d="M161.71,400.75c4.38,0,7.92-3.55,7.92-7.92s-3.55-7.92-7.92-7.92-7.92,3.55-7.92,7.92,3.55,7.92,7.92,7.92"/>
  <path class="cls-1" d="M238.6,400.75c4.38,0,7.92-3.55,7.92-7.92s-3.55-7.92-7.92-7.92-7.92,3.55-7.92,7.92,3.55,7.92,7.92,7.92"/>
  <path class="cls-1" d="M315.49,400.75c4.38,0,7.92-3.55,7.92-7.92s-3.55-7.92-7.92-7.92-7.92,3.55-7.92,7.92,3.55,7.92,7.92,7.92"/>
  <path class="cls-1" d="M392.38,400.75c4.38,0,7.92-3.55,7.92-7.92s-3.55-7.92-7.92-7.92-7.92,3.55-7.92,7.92,3.55,7.92,7.92,7.92"/>
  <path class="cls-1" d="M469.28,400.75c4.38,0,7.92-3.55,7.92-7.92s-3.55-7.92-7.92-7.92-7.92,3.55-7.92,7.92,3.55,7.92,7.92,7.92"/>
  <path class="cls-1" d="M546.17,400.75c4.38,0,7.92-3.55,7.92-7.92s-3.55-7.92-7.92-7.92-7.92,3.55-7.92,7.92,3.55,7.92,7.92,7.92"/>
  <path class="cls-1" d="M623.06,400.75c4.38,0,7.92-3.55,7.92-7.92s-3.55-7.92-7.92-7.92-7.92,3.55-7.92,7.92,3.55,7.92,7.92,7.92"/>
  <path class="cls-1" d="M699.95,400.75c4.38,0,7.92-3.55,7.92-7.92s-3.55-7.92-7.92-7.92-7.92,3.55-7.92,7.92,3.55,7.92,7.92,7.92"/>
  <path class="cls-1" d="M776.85,400.75c4.38,0,7.92-3.55,7.92-7.92s-3.55-7.92-7.92-7.92-7.92,3.55-7.92,7.92,3.55,7.92,7.92,7.92"/>
  <path class="cls-1" d="M853.74,400.75c4.38,0,7.92-3.55,7.92-7.92s-3.55-7.92-7.92-7.92-7.92,3.55-7.92,7.92,3.55,7.92,7.92,7.92"/>
  <path class="cls-1" d="M930.63,400.75c4.38,0,7.92-3.55,7.92-7.92s-3.55-7.92-7.92-7.92-7.92,3.55-7.92,7.92,3.55,7.92,7.92,7.92"/>
  <path class="cls-1" d="M7.92,455.74c4.38,0,7.92-3.55,7.92-7.92s-3.55-7.92-7.92-7.92-7.92,3.55-7.92,7.92,3.55,7.92,7.92,7.92"/>
  <path class="cls-1" d="M84.82,455.74c4.38,0,7.92-3.55,7.92-7.92s-3.55-7.92-7.92-7.92-7.92,3.55-7.92,7.92,3.55,7.92,7.92,7.92"/>
  <path class="cls-1" d="M161.71,455.74c4.38,0,7.92-3.55,7.92-7.92s-3.55-7.92-7.92-7.92-7.92,3.55-7.92,7.92,3.55,7.92,7.92,7.92"/>
  <path class="cls-1" d="M238.6,455.74c4.38,0,7.92-3.55,7.92-7.92s-3.55-7.92-7.92-7.92-7.92,3.55-7.92,7.92,3.55,7.92,7.92,7.92"/>
  <path class="cls-1" d="M315.49,455.74c4.38,0,7.92-3.55,7.92-7.92s-3.55-7.92-7.92-7.92-7.92,3.55-7.92,7.92,3.55,7.92,7.92,7.92"/>
  <path class="cls-1" d="M392.38,455.74c4.38,0,7.92-3.55,7.92-7.92s-3.55-7.92-7.92-7.92-7.92,3.55-7.92,7.92,3.55,7.92,7.92,7.92"/>
  <path class="cls-1" d="M469.28,455.74c4.38,0,7.92-3.55,7.92-7.92s-3.55-7.92-7.92-7.92-7.92,3.55-7.92,7.92,3.55,7.92,7.92,7.92"/>
  <path class="cls-1" d="M546.17,455.74c4.38,0,7.92-3.55,7.92-7.92s-3.55-7.92-7.92-7.92-7.92,3.55-7.92,7.92,3.55,7.92,7.92,7.92"/>
  <path class="cls-1" d="M623.06,455.74c4.38,0,7.92-3.55,7.92-7.92s-3.55-7.92-7.92-7.92-7.92,3.55-7.92,7.92,3.55,7.92,7.92,7.92"/>
  <path class="cls-1" d="M699.95,455.74c4.38,0,7.92-3.55,7.92-7.92s-3.55-7.92-7.92-7.92-7.92,3.55-7.92,7.92,3.55,7.92,7.92,7.92"/>
  <path class="cls-1" d="M776.85,455.74c4.38,0,7.92-3.55,7.92-7.92s-3.55-7.92-7.92-7.92-7.92,3.55-7.92,7.92,3.55,7.92,7.92,7.92"/>
  <path class="cls-1" d="M853.74,455.74c4.38,0,7.92-3.55,7.92-7.92s-3.55-7.92-7.92-7.92-7.92,3.55-7.92,7.92,3.55,7.92,7.92,7.92"/>
  <path class="cls-1" d="M930.63,455.74c4.38,0,7.92-3.55,7.92-7.92s-3.55-7.92-7.92-7.92-7.92,3.55-7.92,7.92,3.55,7.92,7.92,7.92"/>
  <path class="cls-1" d="M7.92,510.73c4.38,0,7.92-3.55,7.92-7.92s-3.55-7.92-7.92-7.92-7.92,3.55-7.92,7.92,3.55,7.92,7.92,7.92"/>
  <path class="cls-1" d="M84.82,510.73c4.38,0,7.92-3.55,7.92-7.92s-3.55-7.92-7.92-7.92-7.92,3.55-7.92,7.92,3.55,7.92,7.92,7.92"/>
  <path class="cls-1" d="M161.71,510.73c4.38,0,7.92-3.55,7.92-7.92s-3.55-7.92-7.92-7.92-7.92,3.55-7.92,7.92,3.55,7.92,7.92,7.92"/>
  <path class="cls-1" d="M238.6,510.73c4.38,0,7.92-3.55,7.92-7.92s-3.55-7.92-7.92-7.92-7.92,3.55-7.92,7.92,3.55,7.92,7.92,7.92"/>
  <path class="cls-1" d="M315.49,510.73c4.38,0,7.92-3.55,7.92-7.92s-3.55-7.92-7.92-7.92-7.92,3.55-7.92,7.92,3.55,7.92,7.92,7.92"/>
  <path class="cls-1" d="M392.38,510.73c4.38,0,7.92-3.55,7.92-7.92s-3.55-7.92-7.92-7.92-7.92,3.55-7.92,7.92,3.55,7.92,7.92,7.92"/>
  <path class="cls-1" d="M469.28,510.73c4.38,0,7.92-3.55,7.92-7.92s-3.55-7.92-7.92-7.92-7.92,3.55-7.92,7.92,3.55,7.92,7.92,7.92"/>
  <path class="cls-1" d="M546.17,510.73c4.38,0,7.92-3.55,7.92-7.92s-3.55-7.92-7.92-7.92-7.92,3.55-7.92,7.92,3.55,7.92,7.92,7.92"/>
  <path class="cls-1" d="M623.06,510.73c4.38,0,7.92-3.55,7.92-7.92s-3.55-7.92-7.92-7.92-7.92,3.55-7.92,7.92,3.55,7.92,7.92,7.92"/>
  <path class="cls-1" d="M699.95,510.73c4.38,0,7.92-3.55,7.92-7.92s-3.55-7.92-7.92-7.92-7.92,3.55-7.92,7.92,3.55,7.92,7.92,7.92"/>
  <path class="cls-1" d="M776.85,510.73c4.38,0,7.92-3.55,7.92-7.92s-3.55-7.92-7.92-7.92-7.92,3.55-7.92,7.92,3.55,7.92,7.92,7.92"/>
  <path class="cls-1" d="M853.74,510.73c4.38,0,7.92-3.55,7.92-7.92s-3.55-7.92-7.92-7.92-7.92,3.55-7.92,7.92,3.55,7.92,7.92,7.92"/>
  <path class="cls-1" d="M930.63,510.73c4.38,0,7.92-3.55,7.92-7.92s-3.55-7.92-7.92-7.92-7.92,3.55-7.92,7.92,3.55,7.92,7.92,7.92"/>
  <path class="cls-1" d="M7.92,565.71c4.38,0,7.92-3.55,7.92-7.92s-3.55-7.92-7.92-7.92-7.92,3.55-7.92,7.92,3.55,7.92,7.92,7.92"/>
  <path class="cls-1" d="M84.82,565.71c4.38,0,7.92-3.55,7.92-7.92s-3.55-7.92-7.92-7.92-7.92,3.55-7.92,7.92,3.55,7.92,7.92,7.92"/>
  <path class="cls-1" d="M161.71,565.71c4.38,0,7.92-3.55,7.92-7.92s-3.55-7.92-7.92-7.92-7.92,3.55-7.92,7.92,3.55,7.92,7.92,7.92"/>
  <path class="cls-1" d="M238.6,565.71c4.38,0,7.92-3.55,7.92-7.92s-3.55-7.92-7.92-7.92-7.92,3.55-7.92,7.92,3.55,7.92,7.92,7.92"/>
  <path class="cls-1" d="M315.49,565.71c4.38,0,7.92-3.55,7.92-7.92s-3.55-7.92-7.92-7.92-7.92,3.55-7.92,7.92,3.55,7.92,7.92,7.92"/>
  <path class="cls-1" d="M392.38,565.71c4.38,0,7.92-3.55,7.92-7.92s-3.55-7.92-7.92-7.92-7.92,3.55-7.92,7.92,3.55,7.92,7.92,7.92"/>
  <path class="cls-1" d="M469.28,565.71c4.38,0,7.92-3.55,7.92-7.92s-3.55-7.92-7.92-7.92-7.92,3.55-7.92,7.92,3.55,7.92,7.92,7.92"/>
  <path class="cls-1" d="M546.17,565.71c4.38,0,7.92-3.55,7.92-7.92s-3.55-7.92-7.92-7.92-7.92,3.55-7.92,7.92,3.55,7.92,7.92,7.92"/>
  <path class="cls-1" d="M623.06,565.71c4.38,0,7.92-3.55,7.92-7.92s-3.55-7.92-7.92-7.92-7.92,3.55-7.92,7.92,3.55,7.92,7.92,7.92"/>
  <path class="cls-1" d="M699.95,565.71c4.38,0,7.92-3.55,7.92-7.92s-3.55-7.92-7.92-7.92-7.92,3.55-7.92,7.92,3.55,7.92,7.92,7.92"/>
  <path class="cls-1" d="M776.85,565.71c4.38,0,7.92-3.55,7.92-7.92s-3.55-7.92-7.92-7.92-7.92,3.55-7.92,7.92,3.55,7.92,7.92,7.92"/>
  <path class="cls-1" d="M853.74,565.71c4.38,0,7.92-3.55,7.92-7.92s-3.55-7.92-7.92-7.92-7.92,3.55-7.92,7.92,3.55,7.92,7.92,7.92"/>
  <path class="cls-1" d="M930.63,565.71c4.38,0,7.92-3.55,7.92-7.92s-3.55-7.92-7.92-7.92-7.92,3.55-7.92,7.92,3.55,7.92,7.92,7.92"/>
  <path class="cls-1" d="M7.92,620.7c4.38,0,7.92-3.55,7.92-7.92s-3.55-7.92-7.92-7.92-7.92,3.55-7.92,7.92,3.55,7.92,7.92,7.92"/>
  <path class="cls-1" d="M84.82,620.7c4.38,0,7.92-3.55,7.92-7.92s-3.55-7.92-7.92-7.92-7.92,3.55-7.92,7.92,3.55,7.92,7.92,7.92"/>
  <path class="cls-1" d="M161.71,620.7c4.38,0,7.92-3.55,7.92-7.92s-3.55-7.92-7.92-7.92-7.92,3.55-7.92,7.92,3.55,7.92,7.92,7.92"/>
  <path class="cls-1" d="M238.6,620.7c4.38,0,7.92-3.55,7.92-7.92s-3.55-7.92-7.92-7.92-7.92,3.55-7.92,7.92,3.55,7.92,7.92,7.92"/>
  <path class="cls-1" d="M315.49,620.7c4.38,0,7.92-3.55,7.92-7.92s-3.55-7.92-7.92-7.92-7.92,3.55-7.92,7.92,3.55,7.92,7.92,7.92"/>
  <path class="cls-1" d="M392.38,620.7c4.38,0,7.92-3.55,7.92-7.92s-3.55-7.92-7.92-7.92-7.92,3.55-7.92,7.92,3.55,7.92,7.92,7.92"/>
  <path class="cls-1" d="M469.28,620.7c4.38,0,7.92-3.55,7.92-7.92s-3.55-7.92-7.92-7.92-7.92,3.55-7.92,7.92,3.55,7.92,7.92,7.92"/>
  <path class="cls-1" d="M546.17,620.7c4.38,0,7.92-3.55,7.92-7.92s-3.55-7.92-7.92-7.92-7.92,3.55-7.92,7.92,3.55,7.92,7.92,7.92"/>
  <path class="cls-1" d="M623.06,620.7c4.38,0,7.92-3.55,7.92-7.92s-3.55-7.92-7.92-7.92-7.92,3.55-7.92,7.92,3.55,7.92,7.92,7.92"/>
  <path class="cls-1" d="M699.95,620.7c4.38,0,7.92-3.55,7.92-7.92s-3.55-7.92-7.92-7.92-7.92,3.55-7.92,7.92,3.55,7.92,7.92,7.92"/>
  <path class="cls-1" d="M776.85,620.7c4.38,0,7.92-3.55,7.92-7.92s-3.55-7.92-7.92-7.92-7.92,3.55-7.92,7.92,3.55,7.92,7.92,7.92"/>
  <path class="cls-1" d="M853.74,620.7c4.38,0,7.92-3.55,7.92-7.92s-3.55-7.92-7.92-7.92-7.92,3.55-7.92,7.92,3.55,7.92,7.92,7.92"/>
  <path class="cls-1" d="M930.63,620.7c4.38,0,7.92-3.55,7.92-7.92s-3.55-7.92-7.92-7.92-7.92,3.55-7.92,7.92,3.55,7.92,7.92,7.92"/>
  <path class="cls-1" d="M7.92,675.69c4.38,0,7.92-3.55,7.92-7.92s-3.55-7.92-7.92-7.92-7.92,3.55-7.92,7.92,3.55,7.92,7.92,7.92"/>
  <path class="cls-1" d="M84.82,675.69c4.38,0,7.92-3.55,7.92-7.92s-3.55-7.92-7.92-7.92-7.92,3.55-7.92,7.92,3.55,7.92,7.92,7.92"/>
  <path class="cls-1" d="M161.71,675.69c4.38,0,7.92-3.55,7.92-7.92s-3.55-7.92-7.92-7.92-7.92,3.55-7.92,7.92,3.55,7.92,7.92,7.92"/>
  <path class="cls-1" d="M238.6,675.69c4.38,0,7.92-3.55,7.92-7.92s-3.55-7.92-7.92-7.92-7.92,3.55-7.92,7.92,3.55,7.92,7.92,7.92"/>
  <path class="cls-1" d="M315.49,675.69c4.38,0,7.92-3.55,7.92-7.92s-3.55-7.92-7.92-7.92-7.92,3.55-7.92,7.92,3.55,7.92,7.92,7.92"/>
  <path class="cls-1" d="M392.38,675.69c4.38,0,7.92-3.55,7.92-7.92s-3.55-7.92-7.92-7.92-7.92,3.55-7.92,7.92,3.55,7.92,7.92,7.92"/>
  <path class="cls-1" d="M469.28,675.69c4.38,0,7.92-3.55,7.92-7.92s-3.55-7.92-7.92-7.92-7.92,3.55-7.92,7.92,3.55,7.92,7.92,7.92"/>
  <path class="cls-1" d="M546.17,675.69c4.38,0,7.92-3.55,7.92-7.92s-3.55-7.92-7.92-7.92-7.92,3.55-7.92,7.92,3.55,7.92,7.92,7.92"/>
  <path class="cls-1" d="M623.06,675.69c4.38,0,7.92-3.55,7.92-7.92s-3.55-7.92-7.92-7.92-7.92,3.55-7.92,7.92,3.55,7.92,7.92,7.92"/>
  <path class="cls-1" d="M699.95,675.69c4.38,0,7.92-3.55,7.92-7.92s-3.55-7.92-7.92-7.92-7.92,3.55-7.92,7.92,3.55,7.92,7.92,7.92"/>
  <path class="cls-1" d="M776.85,675.69c4.38,0,7.92-3.55,7.92-7.92s-3.55-7.92-7.92-7.92-7.92,3.55-7.92,7.92,3.55,7.92,7.92,7.92"/>
  <path class="cls-1" d="M853.74,675.69c4.38,0,7.92-3.55,7.92-7.92s-3.55-7.92-7.92-7.92-7.92,3.55-7.92,7.92,3.55,7.92,7.92,7.92"/>
  <path class="cls-1" d="M930.63,675.69c4.38,0,7.92-3.55,7.92-7.92s-3.55-7.92-7.92-7.92-7.92,3.55-7.92,7.92,3.55,7.92,7.92,7.92"/>
</svg>